<mxfile host="Electron" modified="2024-01-09T14:20:54.255Z" agent="Mozilla/5.0 (Windows NT 10.0; Win64; x64) AppleWebKit/537.36 (KHTML, like Gecko) draw.io/22.0.3 Chrome/114.0.5735.289 Electron/25.8.4 Safari/537.36" etag="ID0ZNCU5FR2OrQPQkPoI" version="22.0.3" type="device">
  <diagram name="Página-1" id="xJkWT-3Ld55ff4BERgHF">
    <mxGraphModel dx="1290" dy="621" grid="1" gridSize="10" guides="1" tooltips="1" connect="1" arrows="1" fold="1" page="1" pageScale="1" pageWidth="827" pageHeight="1169" math="0" shadow="0">
      <root>
        <mxCell id="0" />
        <mxCell id="1" parent="0" />
        <mxCell id="NNQNaFgczvUqv_xl2M7g-2" value="" style="whiteSpace=wrap;html=1;aspect=fixed;" parent="1" vertex="1">
          <mxGeometry x="300" y="100" width="1010" height="1010" as="geometry" />
        </mxCell>
        <mxCell id="NNQNaFgczvUqv_xl2M7g-3" value="Rececionista" style="shape=umlActor;verticalLabelPosition=bottom;verticalAlign=top;html=1;" parent="1" vertex="1">
          <mxGeometry x="200" y="190" width="30" height="60" as="geometry" />
        </mxCell>
        <mxCell id="NNQNaFgczvUqv_xl2M7g-7" value="" style="endArrow=none;html=1;rounded=0;" parent="1" target="NNQNaFgczvUqv_xl2M7g-8" edge="1">
          <mxGeometry relative="1" as="geometry">
            <mxPoint x="240" y="220" as="sourcePoint" />
            <mxPoint x="390" y="189.5" as="targetPoint" />
          </mxGeometry>
        </mxCell>
        <mxCell id="NNQNaFgczvUqv_xl2M7g-8" value="Receber encomenda" style="ellipse;whiteSpace=wrap;html=1;" parent="1" vertex="1">
          <mxGeometry x="400" y="140" width="140" height="70" as="geometry" />
        </mxCell>
        <mxCell id="NNQNaFgczvUqv_xl2M7g-15" value="Registar peso da matéria prima" style="ellipse;whiteSpace=wrap;html=1;" parent="1" vertex="1">
          <mxGeometry x="780" y="220" width="140" height="70" as="geometry" />
        </mxCell>
        <mxCell id="NNQNaFgczvUqv_xl2M7g-18" value="Avaliar encomenda" style="ellipse;whiteSpace=wrap;html=1;" parent="1" vertex="1">
          <mxGeometry x="570" y="240" width="140" height="70" as="geometry" />
        </mxCell>
        <mxCell id="NNQNaFgczvUqv_xl2M7g-21" value="Aceita/Recusa encomenda" style="ellipse;whiteSpace=wrap;html=1;" parent="1" vertex="1">
          <mxGeometry x="680" y="350" width="140" height="70" as="geometry" />
        </mxCell>
        <mxCell id="NNQNaFgczvUqv_xl2M7g-22" value="&amp;lt;&amp;lt;include&amp;gt;&amp;gt;" style="html=1;verticalAlign=bottom;endArrow=open;dashed=1;endSize=8;curved=0;rounded=0;exitX=1;exitY=0.5;exitDx=0;exitDy=0;entryX=0;entryY=0;entryDx=0;entryDy=0;" parent="1" source="NNQNaFgczvUqv_xl2M7g-18" target="NNQNaFgczvUqv_xl2M7g-21" edge="1">
          <mxGeometry relative="1" as="geometry">
            <mxPoint x="650" y="360" as="sourcePoint" />
            <mxPoint x="570" y="360" as="targetPoint" />
          </mxGeometry>
        </mxCell>
        <mxCell id="NNQNaFgczvUqv_xl2M7g-23" value="Gestor de encomenda" style="shape=umlActor;verticalLabelPosition=bottom;verticalAlign=top;html=1;" parent="1" vertex="1">
          <mxGeometry x="200" y="530" width="30" height="60" as="geometry" />
        </mxCell>
        <mxCell id="NNQNaFgczvUqv_xl2M7g-25" value="Procurar fornecedor" style="ellipse;whiteSpace=wrap;html=1;" parent="1" vertex="1">
          <mxGeometry x="390" y="470" width="140" height="70" as="geometry" />
        </mxCell>
        <mxCell id="NNQNaFgczvUqv_xl2M7g-26" value="&amp;lt;&amp;lt;include&amp;gt;&amp;gt;" style="html=1;verticalAlign=bottom;endArrow=open;dashed=1;endSize=8;curved=0;rounded=0;" parent="1" source="NNQNaFgczvUqv_xl2M7g-25" edge="1">
          <mxGeometry relative="1" as="geometry">
            <mxPoint x="670" y="520" as="sourcePoint" />
            <mxPoint x="600" y="520" as="targetPoint" />
          </mxGeometry>
        </mxCell>
        <mxCell id="NNQNaFgczvUqv_xl2M7g-27" value="Encomendar materia-prima" style="ellipse;whiteSpace=wrap;html=1;" parent="1" vertex="1">
          <mxGeometry x="600" y="480" width="140" height="70" as="geometry" />
        </mxCell>
        <mxCell id="NNQNaFgczvUqv_xl2M7g-29" value="Registar faturas/pagamentos" style="ellipse;whiteSpace=wrap;html=1;" parent="1" vertex="1">
          <mxGeometry x="400" y="580" width="140" height="70" as="geometry" />
        </mxCell>
        <mxCell id="NNQNaFgczvUqv_xl2M7g-30" value="Funcionario Produção" style="shape=umlActor;verticalLabelPosition=bottom;verticalAlign=top;html=1;" parent="1" vertex="1">
          <mxGeometry x="1440" y="230" width="30" height="60" as="geometry" />
        </mxCell>
        <mxCell id="NNQNaFgczvUqv_xl2M7g-35" value="" style="endArrow=none;html=1;rounded=0;exitX=0.911;exitY=0.089;exitDx=0;exitDy=0;exitPerimeter=0;" parent="1" source="NNQNaFgczvUqv_xl2M7g-2" edge="1">
          <mxGeometry relative="1" as="geometry">
            <mxPoint x="1280" y="250" as="sourcePoint" />
            <mxPoint x="1440" y="250" as="targetPoint" />
          </mxGeometry>
        </mxCell>
        <mxCell id="NNQNaFgczvUqv_xl2M7g-36" value="Consultar stock" style="ellipse;whiteSpace=wrap;html=1;" parent="1" vertex="1">
          <mxGeometry x="1080" y="150" width="140" height="70" as="geometry" />
        </mxCell>
        <mxCell id="NNQNaFgczvUqv_xl2M7g-38" value="Registar lote cevada muida" style="ellipse;whiteSpace=wrap;html=1;" parent="1" vertex="1">
          <mxGeometry x="1080" y="270" width="140" height="70" as="geometry" />
        </mxCell>
        <mxCell id="NNQNaFgczvUqv_xl2M7g-41" value="Registar lote whisky a envelhecer" style="ellipse;whiteSpace=wrap;html=1;" parent="1" vertex="1">
          <mxGeometry x="1060" y="370" width="140" height="70" as="geometry" />
        </mxCell>
        <mxCell id="Qtz8jcJSW3FSRaHK8K19-1" value="&amp;lt;&amp;lt;include&amp;gt;&amp;gt;" style="html=1;verticalAlign=bottom;endArrow=open;dashed=1;endSize=8;curved=0;rounded=0;exitX=1;exitY=1;exitDx=0;exitDy=0;" parent="1" source="NNQNaFgczvUqv_xl2M7g-8" target="NNQNaFgczvUqv_xl2M7g-18" edge="1">
          <mxGeometry relative="1" as="geometry">
            <mxPoint x="630" y="220" as="sourcePoint" />
            <mxPoint x="550" y="220" as="targetPoint" />
          </mxGeometry>
        </mxCell>
        <mxCell id="Qtz8jcJSW3FSRaHK8K19-9" value="Gestor financeiro&lt;br&gt;" style="shape=umlActor;verticalLabelPosition=bottom;verticalAlign=top;html=1;" parent="1" vertex="1">
          <mxGeometry x="220" y="830" width="30" height="60" as="geometry" />
        </mxCell>
        <mxCell id="Qtz8jcJSW3FSRaHK8K19-13" value="" style="endArrow=none;html=1;rounded=0;" parent="1" target="gBDvsGSK3CwwDaUqsVzb-1" edge="1">
          <mxGeometry relative="1" as="geometry">
            <mxPoint x="240" y="860" as="sourcePoint" />
            <mxPoint x="400" y="860" as="targetPoint" />
          </mxGeometry>
        </mxCell>
        <mxCell id="Qtz8jcJSW3FSRaHK8K19-14" value="Verificar lotes de whisky final" style="ellipse;whiteSpace=wrap;html=1;" parent="1" vertex="1">
          <mxGeometry x="440" y="810" width="140" height="70" as="geometry" />
        </mxCell>
        <mxCell id="Qtz8jcJSW3FSRaHK8K19-16" value="Efetuar relatório financeiro" style="ellipse;whiteSpace=wrap;html=1;" parent="1" vertex="1">
          <mxGeometry x="450" y="950" width="140" height="70" as="geometry" />
        </mxCell>
        <mxCell id="Qtz8jcJSW3FSRaHK8K19-17" value="&amp;lt;&amp;lt;include&amp;gt;&amp;gt;" style="html=1;verticalAlign=bottom;endArrow=open;dashed=1;endSize=8;curved=0;rounded=0;entryX=0.5;entryY=0;entryDx=0;entryDy=0;exitX=0.271;exitY=0.94;exitDx=0;exitDy=0;exitPerimeter=0;" parent="1" source="qCgow8naztmEFLx19yjq-3" target="Qtz8jcJSW3FSRaHK8K19-16" edge="1">
          <mxGeometry relative="1" as="geometry">
            <mxPoint x="470" y="820" as="sourcePoint" />
            <mxPoint x="390" y="820" as="targetPoint" />
          </mxGeometry>
        </mxCell>
        <mxCell id="Qtz8jcJSW3FSRaHK8K19-18" value="" style="endArrow=none;html=1;rounded=0;" parent="1" target="NNQNaFgczvUqv_xl2M7g-29" edge="1">
          <mxGeometry relative="1" as="geometry">
            <mxPoint x="240" y="860" as="sourcePoint" />
            <mxPoint x="400" y="860" as="targetPoint" />
          </mxGeometry>
        </mxCell>
        <mxCell id="BkxoG9pC-ogMYqgfiYWu-2" value="Registar lote whisky final" style="ellipse;whiteSpace=wrap;html=1;align=center;" parent="1" vertex="1">
          <mxGeometry x="1040" y="480" width="160" height="55" as="geometry" />
        </mxCell>
        <mxCell id="qCgow8naztmEFLx19yjq-2" value="&amp;lt;&amp;lt;include&amp;gt;&amp;gt;" style="html=1;verticalAlign=bottom;endArrow=open;dashed=1;endSize=8;curved=0;rounded=0;exitX=0.969;exitY=0.657;exitDx=0;exitDy=0;exitPerimeter=0;" parent="1" source="Qtz8jcJSW3FSRaHK8K19-14" target="qCgow8naztmEFLx19yjq-3" edge="1">
          <mxGeometry x="0.028" y="5" relative="1" as="geometry">
            <mxPoint x="537.6306713858003" y="798.4431796482463" as="sourcePoint" />
            <mxPoint x="598.4855237403415" y="811.4180049979668" as="targetPoint" />
            <mxPoint as="offset" />
          </mxGeometry>
        </mxCell>
        <mxCell id="qCgow8naztmEFLx19yjq-3" value="Verificar pagamentos" style="ellipse;whiteSpace=wrap;html=1;" parent="1" vertex="1">
          <mxGeometry x="650" y="840" width="140" height="70" as="geometry" />
        </mxCell>
        <mxCell id="uxjTTyDDN5thWqsiORZi-1" value="&amp;lt;&amp;lt;extend&amp;gt;&amp;gt;" style="html=1;verticalAlign=bottom;endArrow=open;dashed=1;endSize=8;curved=0;rounded=0;entryX=0.709;entryY=0.083;entryDx=0;entryDy=0;entryPerimeter=0;" parent="1" source="NNQNaFgczvUqv_xl2M7g-15" target="NNQNaFgczvUqv_xl2M7g-21" edge="1">
          <mxGeometry relative="1" as="geometry">
            <mxPoint x="850" y="350" as="sourcePoint" />
            <mxPoint x="770" y="350" as="targetPoint" />
          </mxGeometry>
        </mxCell>
        <mxCell id="q1J76iyPKqKOCkIrRaj2-4" value="Registar fornecedor" style="ellipse;whiteSpace=wrap;html=1;" parent="1" vertex="1">
          <mxGeometry x="380" y="270" width="140" height="70" as="geometry" />
        </mxCell>
        <mxCell id="q1J76iyPKqKOCkIrRaj2-8" value="" style="endArrow=none;html=1;rounded=0;" parent="1" target="q1J76iyPKqKOCkIrRaj2-4" edge="1">
          <mxGeometry relative="1" as="geometry">
            <mxPoint x="240" y="220" as="sourcePoint" />
            <mxPoint x="400" y="220" as="targetPoint" />
          </mxGeometry>
        </mxCell>
        <mxCell id="q1J76iyPKqKOCkIrRaj2-9" value="&amp;lt;&amp;lt;extend&amp;gt;&amp;gt;" style="html=1;verticalAlign=bottom;endArrow=open;dashed=1;endSize=8;curved=0;rounded=0;exitX=0.5;exitY=0;exitDx=0;exitDy=0;" parent="1" source="q1J76iyPKqKOCkIrRaj2-4" edge="1">
          <mxGeometry relative="1" as="geometry">
            <mxPoint x="530" y="210" as="sourcePoint" />
            <mxPoint x="450" y="210" as="targetPoint" />
          </mxGeometry>
        </mxCell>
        <mxCell id="4s3m4AK2wlko6X9wzI-p-1" value="&amp;lt;&amp;lt;extend&amp;gt;&amp;gt;" style="html=1;verticalAlign=bottom;endArrow=open;dashed=1;endSize=8;curved=0;rounded=0;entryX=0.926;entryY=0.27;entryDx=0;entryDy=0;entryPerimeter=0;" parent="1" target="NNQNaFgczvUqv_xl2M7g-27" edge="1">
          <mxGeometry relative="1" as="geometry">
            <mxPoint x="820" y="490" as="sourcePoint" />
            <mxPoint x="740" y="500" as="targetPoint" />
          </mxGeometry>
        </mxCell>
        <mxCell id="4s3m4AK2wlko6X9wzI-p-2" value="Cancelar encomenda" style="ellipse;whiteSpace=wrap;html=1;" parent="1" vertex="1">
          <mxGeometry x="820" y="450" width="140" height="70" as="geometry" />
        </mxCell>
        <mxCell id="4s3m4AK2wlko6X9wzI-p-3" value="&amp;lt;&amp;lt;extend&amp;gt;&amp;gt;" style="html=1;verticalAlign=bottom;endArrow=open;dashed=1;endSize=8;curved=0;rounded=0;" parent="1" source="4s3m4AK2wlko6X9wzI-p-4" edge="1">
          <mxGeometry relative="1" as="geometry">
            <mxPoint x="800" y="540" as="sourcePoint" />
            <mxPoint x="720" y="540" as="targetPoint" />
          </mxGeometry>
        </mxCell>
        <mxCell id="4s3m4AK2wlko6X9wzI-p-4" value="Pagamento encomenda" style="ellipse;whiteSpace=wrap;html=1;" parent="1" vertex="1">
          <mxGeometry x="820" y="561" width="140" height="70" as="geometry" />
        </mxCell>
        <mxCell id="4s3m4AK2wlko6X9wzI-p-5" value="&amp;lt;&amp;lt;include&amp;gt;&amp;gt;" style="html=1;verticalAlign=bottom;endArrow=open;dashed=1;endSize=8;curved=0;rounded=0;entryX=1;entryY=0.5;entryDx=0;entryDy=0;" parent="1" target="NNQNaFgczvUqv_xl2M7g-29" edge="1">
          <mxGeometry relative="1" as="geometry">
            <mxPoint x="820" y="610" as="sourcePoint" />
            <mxPoint x="740" y="610" as="targetPoint" />
          </mxGeometry>
        </mxCell>
        <mxCell id="lbIctcAva-A1L-uVdosH-1" value="Realizar encomenda" style="ellipse;whiteSpace=wrap;html=1;" parent="1" vertex="1">
          <mxGeometry x="350" y="360" width="140" height="70" as="geometry" />
        </mxCell>
        <mxCell id="lbIctcAva-A1L-uVdosH-2" value="" style="endArrow=none;html=1;rounded=0;exitX=0.667;exitY=0.667;exitDx=0;exitDy=0;exitPerimeter=0;" parent="1" source="NNQNaFgczvUqv_xl2M7g-23" edge="1">
          <mxGeometry relative="1" as="geometry">
            <mxPoint x="200" y="410" as="sourcePoint" />
            <mxPoint x="360" y="410" as="targetPoint" />
          </mxGeometry>
        </mxCell>
        <mxCell id="lbIctcAva-A1L-uVdosH-3" value="&amp;lt;&amp;lt;include&amp;gt;&amp;gt;" style="html=1;verticalAlign=bottom;endArrow=open;dashed=1;endSize=8;curved=0;rounded=0;" parent="1" target="NNQNaFgczvUqv_xl2M7g-25" edge="1">
          <mxGeometry relative="1" as="geometry">
            <mxPoint x="420" y="430" as="sourcePoint" />
            <mxPoint x="340" y="430" as="targetPoint" />
          </mxGeometry>
        </mxCell>
        <mxCell id="gBDvsGSK3CwwDaUqsVzb-1" value="Verificar estado empresa" style="ellipse;whiteSpace=wrap;html=1;" parent="1" vertex="1">
          <mxGeometry x="440" y="680" width="140" height="70" as="geometry" />
        </mxCell>
        <mxCell id="gBDvsGSK3CwwDaUqsVzb-2" value="return" style="html=1;verticalAlign=bottom;endArrow=open;dashed=1;endSize=8;curved=0;rounded=0;" parent="1" source="gBDvsGSK3CwwDaUqsVzb-1" target="Qtz8jcJSW3FSRaHK8K19-14" edge="1">
          <mxGeometry relative="1" as="geometry">
            <mxPoint x="620" y="770" as="sourcePoint" />
            <mxPoint x="540" y="770" as="targetPoint" />
          </mxGeometry>
        </mxCell>
        <mxCell id="rhIlWneP_Te4IigzMDNN-1" value="" style="endArrow=none;html=1;rounded=0;" edge="1" parent="1" source="NNQNaFgczvUqv_xl2M7g-38">
          <mxGeometry relative="1" as="geometry">
            <mxPoint x="1280" y="250" as="sourcePoint" />
            <mxPoint x="1440" y="250" as="targetPoint" />
          </mxGeometry>
        </mxCell>
        <mxCell id="rhIlWneP_Te4IigzMDNN-2" value="" style="endArrow=none;html=1;rounded=0;entryX=0;entryY=0.3333333333333333;entryDx=0;entryDy=0;entryPerimeter=0;" edge="1" parent="1" source="NNQNaFgczvUqv_xl2M7g-41" target="NNQNaFgczvUqv_xl2M7g-30">
          <mxGeometry relative="1" as="geometry">
            <mxPoint x="1225" y="303" as="sourcePoint" />
            <mxPoint x="1450" y="260" as="targetPoint" />
          </mxGeometry>
        </mxCell>
        <mxCell id="rhIlWneP_Te4IigzMDNN-4" value="" style="endArrow=none;html=1;rounded=0;entryX=0;entryY=0.3333333333333333;entryDx=0;entryDy=0;entryPerimeter=0;" edge="1" parent="1" source="BkxoG9pC-ogMYqgfiYWu-2" target="NNQNaFgczvUqv_xl2M7g-30">
          <mxGeometry relative="1" as="geometry">
            <mxPoint x="1245" y="323" as="sourcePoint" />
            <mxPoint x="1470" y="280" as="targetPoint" />
          </mxGeometry>
        </mxCell>
      </root>
    </mxGraphModel>
  </diagram>
</mxfile>
